<svg id="Layer_1" data-name="Layer 1" xmlns="http://www.w3.org/2000/svg" viewBox="0 0 88.343 88.343"><title>sticker-burst-3</title><circle cx="44.172" cy="44.172" r="44.172" fill="#fff"/><path d="M38.779,64.115h6.189c3.634,0,5.85-1.357,6.617-5.5l.9-4.867c.96-5.184-.807-6.78-5.719-6.78H41.956Z" fill="#03589e"/><path d="M44.172,1.652a42.52,42.52,0,0,0-42.52,42.52c0,1.206.053,2.4.152,3.581H16.3l1.881-8.777,14.445.01,4.213-22.737H53.148c11.2,0,15.229,4.229,13.632,12.845l-.369,1.994c-1.065,5.744-3.892,9.333-9.043,11.167l-.03.161C62.793,44.251,64.284,48.4,63.19,54.3l-.842,4.547c-1.6,8.616-8.054,13.244-18.859,13.244H26.5L31.15,46.97H26.335l-1.881,7.994L1.8,47.753a42.519,42.519,0,1,0,42.368-46.1Z" fill="#03589e"/><path d="M55.234,33.082l.577-3.111c.739-3.988-.6-5.744-4.436-5.744H46.169L43.435,38.986h4.223C51.685,38.986,54.406,37.55,55.234,33.082Z" fill="#03589e"/></svg>